<?xml version="1.0" standalone="no"?>
<!DOCTYPE svg PUBLIC "-//W3C//DTD SVG 1.1//EN" "http://www.w3.org/Graphics/SVG/1.1/DTD/svg11.dtd" >
<svg xmlns="http://www.w3.org/2000/svg">
<metadata></metadata>
<defs>
<font id="fontelloregular" horiz-adv-x="1900" >
<font-face units-per-em="2048" ascent="1741" descent="-307" />
<missing-glyph horiz-adv-x="500" />
<glyph horiz-adv-x="0" />
<glyph unicode="&#xd;" horiz-adv-x="2048" />
<glyph unicode="!" d="M61 789.5q0 60.5 43 105.5l84 84q45 43 104.5 43t102.5 -43l336 -336v805q0 59 43 102t105 45h145q59 0 102 -45t43 -102v-805l336 336q43 43 103.5 43t103.5 -43l86 -86q43 -43 43 -102q0 -61 -43 -103l-743 -745q-45 -43 -104.5 -43t-102.5 43l-744 745 q-43 41 -43 101.5z" />
<glyph unicode="#" horiz-adv-x="1755" d="M0 571v146q0 61 37 104t96 41h805l-334 336q-45 43 -45 104.5t45 102.5l86 86q43 43 102.5 43t104.5 -43l743 -743q41 -42 41 -105q0 -61 -41 -102l-743 -746q-45 -41 -104.5 -41t-102.5 41l-86 86q-45 43 -45 104.5t45 104.5l334 334h-805q-59 0 -96 43t-37 104z" />
<glyph unicode="%" d="M61 631.5q0 60.5 43 103.5l744 744q41 43 102.5 43t104.5 -43l743 -744q43 -45 43 -104q0 -57 -43 -103l-86 -86q-43 -43 -103.5 -43t-103.5 43l-336 336v-805q0 -59 -41 -96t-104 -39h-145q-61 0 -104.5 39t-43.5 96v805l-336 -336q-41 -43 -102.5 -43t-102.5 43l-86 86 q-43 43 -43 103.5z" />
<glyph unicode="&#x26;" horiz-adv-x="1607" d="M0 -125v1684q0 29 18.5 41t44.5 -5l1518 -843q27 -14 27 -35t-27 -35l-1518 -844q-27 -14 -45 -4t-18 41z" />
<glyph unicode="(" horiz-adv-x="2048" d="M0 432q0 131 80 280.5t225 295.5q193 193 391.5 268.5t280.5 -6.5q74 -74 22 -240q-4 -16 0.5 -22.5t10.5 -8.5t16 0l23 7q160 68 282.5 67.5t173.5 -71t0 -201.5q-2 -16 -6 -22.5t6.5 -14.5t14.5 -10t18 -6q66 -20 119 -53t90 -94.5t39 -133.5q0 -78 -41 -158 t-125 -157.5t-192.5 -133t-258 -96.5t-309.5 -34.5t-315.5 39t-274 104t-196.5 174t-74 227.5zM207 350q10 -109 102 -192.5t237.5 -124.5t313.5 -25q256 27 422 162t152 303q-10 109 -100.5 193t-240 124.5t-313.5 24.5q-254 -27 -422 -162t-151 -303zM473 249.5 q-45 106.5 8.5 213t172 160t239.5 20.5q127 -33 182 -135t2 -219q-51 -117 -180 -170t-254 -14.5t-170 145zM565 280.5q10 -38.5 49 -59t86 -2.5t72 55q23 37 12.5 78t-50.5 57.5t-85 0t-67 -51.5q-27 -39 -17 -77.5zM805 442q-18 -37 16 -53q16 -4 33 2.5t25 20.5 q10 14 4 30.5t-20.5 21.5t-33 -1t-24.5 -21zM1331 1442q-8 31 10.5 59.5t51.5 32.5q139 29 278.5 -12t237.5 -154q98 -111 128.5 -256t-16.5 -274q-10 -33 -38.5 -47.5t-59.5 -4t-45 39t-6 59.5q33 94 12.5 196.5t-92.5 181t-170 107.5t-197 10q-33 -6 -59.5 12.5 t-34.5 49.5zM1398 1181.5q-5 28.5 11 51t41 29.5q70 14 137.5 -6.5t114.5 -75.5v2q47 -55 61.5 -125t-6.5 -135q-10 -25 -34.5 -39.5t-50 -4t-40 35t-4.5 51.5q23 72 -26.5 125t-122.5 40q-27 -6 -51.5 8.5t-29.5 43z" />
<glyph unicode=")" d="M0 315v951q0 135 96.5 231t233.5 98h950q72 0 133 -28q18 -8 21.5 -27.5t-11.5 -32.5l-55 -57q-12 -10 -27 -10q-4 0 -10 2q-27 6 -51 6h-950q-76 0 -129.5 -53.5t-55.5 -128.5v-951q0 -76 55.5 -129t129.5 -55h950q76 0 129 55.5t53 128.5v289q0 16 11 27l73 71 q12 12 27 13q6 0 14 -4q23 -8 23 -33v-363q0 -137 -96.5 -233t-233.5 -96h-950q-137 0 -233.5 96t-96.5 233zM293 862.5q0 36.5 29 65.5l124 127q29 27 66 26.5t66 -26.5l301 -301l739 739q27 27 63.5 27t65.5 -27l127 -125q27 -29 27 -65.5t-27 -65.5l-932 -930 q-27 -29 -63.5 -28.5t-65.5 28.5l-491 492q-29 27 -29 63.5z" />
<glyph unicode="1" horiz-adv-x="2048" d="M0 1059q0 252 145.5 393t401.5 143q70 0 143.5 -24.5t137 -67.5t110.5 -77.5t86 -77.5q41 41 86 77.5t110.5 77.5t137.5 67.5t143 24.5q256 0 401.5 -143t145.5 -394t-262 -513l-711 -686q-20 -21 -51 -21q-29 0 -51 21l-713 688l-31 31q-20 20 -63 73.5t-78 112.5 t-61.5 137t-26.5 158z" />
<glyph unicode="2" d="M31 712.5q2 16.5 12 24.5l821 684q37 31 86 31t88 -31l279 -233v223q0 16 10 26.5t27 10.5h219q16 0 26.5 -10.5t10.5 -26.5v-465l250 -209q10 -10 12 -24.5t-8 -26.5l-70 -84q-10 -10 -25 -12h-4q-14 0 -24 6l-791 659l-790 -659q-14 -8 -27 -8q-14 4 -24 14l-72 84 q-8 10 -6 26.5zM293 59v555l657 541l658 -541q2 -2 2 -8v-547q0 -31 -22.5 -53t-51.5 -20h-438v438h-293v-438h-438q-31 0 -51.5 20.5t-22.5 52.5z" />
<glyph unicode="3" horiz-adv-x="1314" d="M0 94v660q0 45 33 77.5t78 30.5h34v367q0 211 152 362.5t360.5 149.5t362.5 -149.5t149 -362.5q0 -31 -20.5 -51.5t-50.5 -22.5h-74q-29 0 -51.5 22.5t-22.5 51.5q0 121 -86 207t-206.5 86t-206.5 -86t-84 -207v-367h839q47 0 78 -30.5t33 -77.5v-660q0 -45 -33 -75.5 t-78 -32.5h-1095q-47 0 -78 32.5t-33 75.5z" />
<glyph unicode="4" horiz-adv-x="1755" d="M0 131v731q0 61 43 104.5t102 43.5h314q41 27 157 176q66 86 123 147q27 29 39.5 96.5t35 145.5t71.5 123q45 43 102 43q96 0 172 -37t117 -117t41 -213q0 -104 -55 -219h200q119 0 207 -86t86 -205q0 -102 -55 -186q10 -37 10 -78q0 -88 -43 -166q2 -25 2 -49 q0 -115 -67 -203q0 -160 -98.5 -252t-258.5 -92h-147q-111 0 -217.5 26.5t-247.5 74.5q-133 47 -158 47h-330q-59 0 -102 43t-43 102zM145 204.5q0 -26.5 22.5 -51t51.5 -22.5t51.5 22.5t22.5 51.5t-22.5 51t-51.5 22.5t-51.5 -22.5t-22.5 -51.5zM438 131h37q14 0 37 -2 t37 -8t43 -12.5t41 -14.5t40.5 -14t33.5 -10q242 -84 391 -84h137q219 0 219 190q0 31 -4 64q33 18 53.5 61t20.5 84t-21 78q59 57 60 137q0 27 -10.5 63.5t-28.5 53.5q37 2 61.5 53t24.5 92q0 59 -45 102.5t-103 45.5h-401q0 66 55 182.5t53 181.5q0 113 -34.5 166 t-147.5 55q-29 -31 -43 -98t-34.5 -143t-67.5 -125q-27 -27 -88 -105l-27 -34q-23 -29 -37 -45.5t-38.5 -49t-45.5 -51.5l-45 -39q-25 -20 -45 -32.5t-41 -10.5h-37v-731z" />
<glyph unicode="5" horiz-adv-x="1755" d="M0 571v732q0 59 43 102t102 43h330q25 0 158 45q147 51 255.5 75.5t227.5 26.5h129q160 0 258.5 -92t98.5 -246v-6q68 -88 67 -202q0 -27 -2 -50q43 -78 43 -165q0 -41 -10 -78q55 -85 55 -187q0 -117 -86 -205t-207 -85h-200q55 -113 55 -220q0 -135 -40 -213.5 t-118 -115.5t-172 -37q-57 0 -102 43q-39 37 -61.5 92t-29 104.5t-20.5 96.5t-35 73q-55 57 -123 146q-117 150 -157 176h-314q-59 0 -102 43t-43 104zM145 1228.5q0 -26.5 22.5 -51t51.5 -22.5t51.5 22.5t22.5 51.5t-22.5 51t-51.5 22.5t-51.5 -22.5t-22.5 -51.5zM438 569 h37q18 0 41 -10t45.5 -30.5t45 -39t45 -51t39 -49t37 -47.5t26.5 -33q61 -78 88 -104q47 -49 67.5 -125t34.5 -143.5t43 -98.5q111 0 147.5 55.5t34.5 165.5q0 66 -53 182.5t-55 182.5h401q57 0 102.5 45t45.5 100v2q0 39 -24.5 92.5t-61.5 53.5q16 20 28.5 55t10.5 62 q0 80 -60 137q20 37 20.5 78t-20 84t-53.5 61q4 33 4 63q0 96 -55.5 143.5t-155.5 47.5h-145q-150 0 -391 -84l-33 -12q-27 -10 -41 -15l-84 -24l-37 -8q-20 -4 -37 -2h-37v-734z" />
<glyph unicode="=" horiz-adv-x="2048" d="M0 59v146q0 31 22.5 51t51.5 23h1900q31 0 51.5 -22.5t22.5 -51.5v-146q0 -31 -22.5 -51t-51.5 -22h-1900q-31 0 -51.5 22.5t-22.5 50.5zM145 936v147q0 29 22.5 51.5t51.5 20.5h1755q31 0 51.5 -20.5t22.5 -51.5v-147q0 -29 -22.5 -51.5t-51.5 -22.5h-1755 q-29 0 -51.5 22.5t-22.5 51.5zM438 498v145q0 31 22.5 51.5t51.5 22.5h1462q31 0 51.5 -22.5t22.5 -51.5v-145q0 -31 -22.5 -51.5t-51.5 -22.5h-1462q-29 0 -51.5 22.5t-22.5 51.5zM586 1374v148q0 29 20.5 51t50.5 22h1317q31 0 51.5 -22t22.5 -51v-148q0 -29 -22.5 -51.5 t-51.5 -19.5h-1317q-29 0 -51 20t-20 51z" />
<glyph unicode="@" horiz-adv-x="1755" d="M74 643q0 59 41 105l745 743q43 43 102.5 43t104.5 -43l86 -86q43 -43 43 -102.5t-43 -104.5l-336 -336h805q59 0 96 -41t37 -104v-146q0 -61 -37 -104t-96 -43h-805l336 -336q43 -41 43 -102.5t-43 -102.5l-86 -88q-43 -41 -103.5 -41t-103.5 41l-745 746 q-41 43 -41 102z" />
<glyph unicode="\" horiz-adv-x="2048" d="M0 716.5q-4 110.5 2 172t8 156t27 167.5q18 84 77.5 141.5t143.5 65.5q252 29 766 29t766 -29q82 -8 143.5 -65.5t79.5 -141.5q16 -74 24.5 -168t8.5 -155t2 -172q0 -111 -2 -172.5t-8 -155.5t-27 -168q-18 -84 -77.5 -141t-143.5 -66q-252 -29 -766 -28.5t-766 28.5 q-82 8 -143.5 65.5t-79.5 141.5q-14 74 -24.5 168t-8.5 155.5t-2 172zM731 350q0 -43 39 -63q18 -8 35 -8q23 0 39 10l586 366q32 19 32 62t-32 61l-586 367q-35 23 -74 2t-39 -64v-733z" />
<glyph unicode="a" horiz-adv-x="1607" d="M0 680v219q0 47 33 78t78 33h475v475q0 45 30.5 77.5t77.5 32.5h219q47 0 78 -32.5t33 -77.5v-475h475q45 0 78 -33t33 -78v-219q0 -45 -33 -78q-31 -31 -73 -31h-5h-475v-477q0 -45 -33 -75.5t-78 -32.5h-219q-45 0 -77.5 32.5t-30.5 75.5v477h-475q-47 0 -78 31t-33 78 z" />
<glyph unicode="b" d="M61 936q0 61 43 104l84 86q45 41 104.5 41t102.5 -41l555 -555l555 555q43 41 103.5 41t103.5 -41l86 -86q43 -45 43 -104t-43 -102l-743 -744q-43 -45 -104.5 -45t-102.5 45l-744 744q-43 41 -43 102z" />
<glyph unicode="c" horiz-adv-x="731" d="M0 205v1024q0 31 22 51q24 20 52 22q3 0 5 1q25 0 46 -23l512 -512q20 -20 20 -51q0 -29 -20 -51l-512 -512q-23 -23 -51.5 -23t-51 22.5t-22.5 51.5z" />
<glyph unicode="d" horiz-adv-x="1607" d="M0 680v219q0 47 33 78t78 33h1388q45 0 78 -33t33 -78v-219q0 -45 -33 -78q-31 -31 -73 -31h-5h-1388q-47 0 -78 31t-33 78z" />
<glyph unicode="e" horiz-adv-x="1607" d="M0 135q0 61 4 118.5t16.5 125t31 123t49 113t69.5 91.5q38 35 98 62q52 24 110 24q9 0 17 -1q10 0 49 -25t84 -55.5t123 -55t154 -24.5t151.5 24.5t124.5 55t84 55.5t49 25q70 0 127.5 -23t98.5 -61.5t69.5 -92t49 -113t30.5 -123.5q11 -62 17 -124q5 -47 4 -92v-27 q0 -137 -84 -217t-221 -80h-1000q-137 0 -221 80t-84 217zM366 1155q4 180 128 311q121 129 305 129h5q188 -2 309.5 -129t129.5 -311q0 -180 -129 -309t-309 -129q-179 0 -311 129q-127 125 -128 297v12z" />
<glyph unicode="f" horiz-adv-x="1607" d="M0 1206q0 106 59 213q63 115 121 140q29 12 78 24t80 12q16 0 24 -4q20 -6 62 -88q12 -20 32.5 -61t41 -72t34.5 -61q4 -4 20.5 -29t25 -41t8.5 -33q0 -23 -33 -57.5t-72 -61t-69.5 -61.5t-32.5 -51q0 -10 6 -27l8 -22q2 -6 16.5 -29t14.5 -20q86 -158 198.5 -270.5 t268.5 -198.5q2 0 20.5 -12.5t28.5 -16.5l23 -10q12 -6 26 -4q20 0 51 30.5t62 71.5t63.5 71.5t57.5 32.5q14 0 30.5 -8t41 -24.5t28.5 -20.5l133 -76q39 -23 64 -34q80 -39 86 -60q4 -8 4 -24q0 -31 -12.5 -80t-24.5 -78q-23 -57 -139 -123q-106 -57 -211 -57 q-33 0 -61.5 4t-65.5 14t-54 16l-120 43q-111 41 -199 97q-147 90 -303 245.5t-246 303.5q-55 88 -94 198l-21 58q-16 47 -24 63t-17 53l-14 66q-4 22 -4 44v15z" />
<glyph unicode="g" horiz-adv-x="1925" d="M0 12q0 102 418 250q193 70 262.5 141.5t69.5 194.5q0 45 -45.5 100.5t-65.5 149.5q-4 25 -18.5 37t-28.5 16t-28.5 35t-18.5 88q0 33 10 53.5t18 24.5l9 8q-16 102 -25 180q-1 9 -1 18q0 102 85 212q92 118 321.5 118t323.5 -118q83 -106 83 -205q0 -12 -1 -25l-25 -180 q37 -16 37 -86q-4 -57 -18 -88t-28.5 -35t-29 -16.5t-18.5 -36.5q-16 -98 -63 -151.5t-47 -98.5q0 -123 71.5 -194.5t259.5 -141.5q418 -147 418 -250v-217h-1925v217z" />
<glyph unicode="h" horiz-adv-x="1052" d="M0 184q0 88 63 152l386 381l-386 381q-63 66 -63 151.5t63 151.5q61 63 151.5 63t152.5 -63l686 -684l-686 -684q-63 -63 -151 -63q-1 0 -2 -1q-88 -1 -150 63q-64 64 -64 152z" />
<glyph unicode="m" d="M61 350.5q0 61.5 43 104.5l744 743q43 43 102.5 43t104.5 -43l743 -743q43 -44 43 -105q0 -59 -43 -102l-86 -86q-43 -43 -103.5 -43t-103.5 43l-555 555l-555 -555q-41 -43 -102.5 -43t-102.5 43l-86 86q-43 41 -43 102.5z" />
<glyph unicode="n" horiz-adv-x="1314" d="M133 132.5q0 60.5 43 103.5l555 555l-555 552q-43 45 -43 105.5t43 101.5l86 86q41 43 104.5 43t102.5 -43l745 -743q41 -43 41 -102t-41 -105l-745 -743q-43 -43 -102.5 -43t-104.5 43l-86 86q-43 43 -43 103.5z" />
<glyph unicode="q" d="M0 790q2 166 63.5 311.5t172 258.5t256 172t313.5 63h19q157 0 292 -63q144 -68 258.5 -172.5t172 -258t63.5 -310.5q0 -252 -142 -457l392 -391q43 -44 43 -105q0 -59 -45.5 -102t-104.5 -43t-100 43l-391 391q-205 -141 -457 -141q-164 0 -313.5 63.5t-256 172 t-171.5 256.5q-64 143 -64 303v9zM293 790q4 -206 149 -362q140 -150 346 -150h17q217 7 360.5 150.5t151.5 362.5q0 211 -151.5 360t-360.5 151q-3 1 -7 1q-204 0 -356 -152q-149 -150 -149 -350v-11z" />
<glyph unicode="r" horiz-adv-x="2048" d="M139 680q0 45 31 78l156 155q33 33 78 33t77 -33l336 -338l750 752q33 33 78 33t77 -33l156 -156q31 -32 31 -77t-31 -78l-983 -983q-33 -31 -78 -31t-78 31l-569 569q-31 33 -31 78z" />
<glyph unicode="s" d="M0 1001q0 43 63 54l574 82l258 520q23 47 55.5 47t57.5 -47l256 -520l573 -82q66 -11 66 -54q0 -25 -31 -55l-416 -403l98 -572q2 -8 2 -24q0 -23 -12 -39.5t-33.5 -17.5t-46.5 14l-514 270l-512 -270q-27 -14 -48 -14q-1 0 -1 -1q-21 1 -33 19t-12 39q0 8 2 24l98 572 l-415 403q-29 31 -29 55z" />
<glyph unicode="u" horiz-adv-x="2193" d="M0 23v1388q0 76 53 129t129 55h1829q76 0 129 -55t53 -129v-1388q0 -76 -53 -129.5t-129 -55.5h-1829q-74 0 -129 56q-53 54 -53 124v5zM145 23q0 -16 12.5 -26.5t24.5 -10.5h1829q14 0 26.5 10t10.5 27v1388q0 15 -10 27q-9 11 -23 10h-4h-1829q-14 0 -24.5 -10.5 t-12.5 -26.5v-1388zM293 131v219l364 367l185 -182l583 583l478 -475v-512h-1610zM293 1083q0 88 63.5 154t155.5 66t155.5 -66t63.5 -154q0 -92 -63.5 -155.5t-155.5 -65.5h-5q-89 0 -151 66q-64 68 -63 155z" />
<glyph unicode="v" horiz-adv-x="731" d="M74 717q0 28 20 51l512 512q23 23 52 23q28 -1 52 -23q21 -19 22 -43q0 -4 -1 -8v-1024q0 -29 -20.5 -51.5t-53 -22.5t-51.5 23l-512 512q-20 23 -20 51z" />
<glyph unicode="w" horiz-adv-x="1607" d="M125 229.5q0 44.5 33 77.5l336 336l-336 336q-33 33 -33 78t33 78l155 155q33 33 78 33t78 -33l336 -336l336 336q33 33 78 33t77 -33l156 -155q31 -31 31 -78t-31 -78l-336 -336l336 -336q31 -31 31 -78q0 -45 -31 -77l-156 -156q-33 -31 -77.5 -31t-77.5 31l-336 338 l-336 -338q-33 -31 -78 -31t-78 31l-155 156q-33 33 -33 77.5z" />
<glyph unicode="x" horiz-adv-x="1169" d="M0 355q0 28 23 48l512 512q21 20 51 21h1q30 0 50 -21l512 -512q20 -22 20 -53q-1 -30 -21 -52q-18 -20 -43 -19h-7h-1024q-32 0 -52 20q-22 23 -22 56z" />
<glyph unicode="z" horiz-adv-x="1169" d="M0 936.5q0 28.5 22.5 51t51.5 22.5h1024q29 0 51 -22.5t20 -51.5q0 -29 -20 -51l-512 -512q-23 -23 -51.5 -23t-50.5 23l-512 512q-23 23 -23 51.5z" />
<glyph unicode="~" horiz-adv-x="2048" d="M0 -205v414q74 29 168 53q193 70 264.5 141.5t71.5 194.5q0 45 -47 98.5t-64 151.5q-4 25 -47 51.5t-51 124.5q0 33 10 53.5t19 24.5l8 8q-16 102 -25 180q-12 111 82 229.5t327.5 118.5t328 -118.5t85.5 -229.5l-28 -180q37 -16 37 -86q-4 -57 -18.5 -88t-29 -35 t-28.5 -16.5t-19 -36.5q-20 -94 -67 -149.5t-47 -100.5q0 -123 73.5 -194.5t266.5 -141.5q369 -131 368 -250v-217h-1638zM1229 614v205h307v307h205v-307h307v-205h-307v-307h-205v307h-307z" />
<glyph unicode="&#x2000;" horiz-adv-x="870" />
<glyph unicode="&#x2001;" horiz-adv-x="1741" />
<glyph unicode="&#x2002;" horiz-adv-x="870" />
<glyph unicode="&#x2003;" horiz-adv-x="1741" />
<glyph unicode="&#x2004;" horiz-adv-x="580" />
<glyph unicode="&#x2005;" horiz-adv-x="435" />
<glyph unicode="&#x2006;" horiz-adv-x="290" />
<glyph unicode="&#x2007;" horiz-adv-x="290" />
<glyph unicode="&#x2008;" horiz-adv-x="217" />
<glyph unicode="&#x2009;" horiz-adv-x="348" />
<glyph unicode="&#x200a;" horiz-adv-x="96" />
<glyph unicode="&#x202f;" horiz-adv-x="348" />
<glyph unicode="&#x205f;" horiz-adv-x="435" />
<glyph unicode="&#xe000;" horiz-adv-x="931" d="M0 0v932h932v-932h-932z" />
</font>
</defs>
</svg>
